<svg width="30" height="68" viewBox="0 0 30 68" fill="none" xmlns="http://www.w3.org/2000/svg">
<g clip-path="url(#clip0_117_220)">
<path d="M0.93297 68C-0.720058 65.8574 0.662921 64.3702 1.41579 60.2027C2.16047 56.0351 0.245572 55.2285 1.8986 51.7163C3.98534 47.2883 0.941154 45.0953 2.5369 42.3561C4.27994 39.3649 1.79222 39.9783 3.28158 36.7602C4.77094 33.5505 2.16865 32.5506 2.74966 29.8619C3.33068 27.1731 0.752937 25.5095 1.7513 23.4593C2.74966 21.4092 -0.605492 19.8883 0.294672 17.0904C1.20302 14.2924 -0.941007 11.1835 0.540172 10.3853C2.9788 9.07454 1.64492 6.18414 2.69238 6.30177C4.40269 6.49503 5.99844 7.31005 5.89205 6.00769C5.78567 4.69693 5.622 4.75575 7.01317 4.10037C8.39615 3.44498 6.30122 1.42002 8.20793 1.89896C10.1065 2.37789 9.68093 0.445355 10.802 1.58807C11.9232 2.73079 10.9166 0.495769 12.4305 2.07541C15.0083 4.76415 13.9035 0.966299 15.2619 0.999908C16.8904 1.04192 16.7922 -0.680556 17.7988 0.302515C18.6498 1.13435 19.6646 -0.411682 20.0574 0.781448C20.4502 1.97458 21.0966 0.957897 21.3912 2.74759C21.6858 4.52888 21.9477 3.25173 21.9968 4.99941C22.0295 6.3858 23.2325 3.39457 24.5827 4.9406C25.9412 6.48662 27.7824 4.68012 27.6269 6.78071C27.4714 8.88129 30.4911 10.2341 29.5336 12.3178C28.5762 14.4016 30.7857 15.3259 29.6973 16.8803C28.6089 18.4347 30.9984 19.7539 29.3454 21.2999C27.6924 22.8459 30.3029 23.619 28.7153 25.2994C27.1277 26.9715 29.0508 28.6015 27.6433 29.9291C26.2358 31.2567 28.1261 33.5001 26.7922 34.5084C25.4583 35.5167 28.3143 36.5333 26.9559 38.5583C25.5893 40.5832 27.6187 43.2552 26.6613 44.2131C25.7038 45.1625 27.7988 47.1371 26.8495 48.7923C25.9002 50.4476 28.3225 51.9936 27.2259 53.1951C26.1294 54.3967 28.2898 55.5142 27.5451 56.7661C26.8004 58.0181 28.4862 59.6985 27.8561 60.9421C27.2259 62.1856 27.496 63.3115 28.077 63.9081C28.6662 64.5047 27.4387 65.5129 28.0197 66.5884C28.6089 67.6555 27.5942 68.0168 27.5942 68.0168C17.7169 68 0.93297 68 0.93297 68Z" fill="#F1E3E3"/>
<path d="M14.9591 16.519C12.8969 16.519 13.0524 18.0399 11.3666 19.4094C9.7627 20.7118 10.0409 22.3503 11.1539 22.9972C12.7332 23.9215 14.0753 22.4763 15.0082 22.4763C15.9329 22.4763 17.5859 24.2744 19.1162 22.804C20.6465 21.3336 19.1244 19.8043 18.2406 19.0145C17.2013 18.0903 16.9395 16.519 14.9591 16.519Z" fill="#D38E79"/>
<path d="M4.7545 11.4692C3.26513 12.0658 5.04091 16.351 6.24386 15.8721C7.45499 15.3931 7.23404 10.4778 4.7545 11.4692Z" fill="#D38E79"/>
<path d="M11.2029 7.3941C9.32077 7.70498 10.5155 12.2422 11.9722 12.0658C13.4288 11.8893 13.3306 7.0412 11.2029 7.3941Z" fill="#D38E79"/>
<path d="M18.6334 6.90678C17.0786 6.67992 16.784 11.15 18.1343 11.5449C19.4845 11.9398 20.2292 7.14205 18.6334 6.90678Z" fill="#D38E79"/>
<path d="M24.9918 11.0238C23.5025 10.15 22.2341 13.5193 23.167 14.3512C23.9935 15.0738 26.2439 11.7633 24.9918 11.0238Z" fill="#D38E79"/>
</g>
<defs>
<clipPath id="clip0_117_220">
<rect width="30" height="68" fill="white"/>
</clipPath>
</defs>
</svg>
