<svg width="32" height="32" viewBox="0 0 32 32" fill="none" xmlns="http://www.w3.org/2000/svg">
<path d="M15.8667 11.9677C10.8 11.9677 6.66666 16.0889 6.66666 21.1717C6.66666 26.2545 10.8 26.6667 15.8667 26.6667C20.9333 26.6667 25.0667 26.2545 25.0667 21.1717C25.0667 16.0889 20.9333 11.9677 15.8667 11.9677Z" fill="white"/>
<path d="M4.26666 9.7697C2.66666 9.7697 1.33333 11.1434 1.33333 12.9293C1.33333 14.5778 2.66666 15.9515 4.26666 15.9515C5.86666 15.9515 7.19999 14.5778 7.19999 12.9293C7.19999 11.1434 5.86666 9.7697 4.26666 9.7697Z" fill="white"/>
<path d="M27.7333 9.7697C26.1333 9.7697 24.8 11.1434 24.8 12.7919C24.8 14.4404 26.1333 15.8141 27.7333 15.8141C29.3333 15.8141 30.6667 14.4404 30.6667 12.7919C30.6667 11.1434 29.4667 9.7697 27.7333 9.7697Z" fill="white"/>
<path d="M11.2 10.1818C12.8 10.1818 14.1333 8.80808 14.1333 7.1596C14.1333 5.37374 12.8 4 11.2 4C9.59999 4 8.26666 5.37374 8.26666 7.02222C8.26666 8.80808 9.59999 10.1818 11.2 10.1818Z" fill="white"/>
<path d="M20.9333 10.1818C22.5333 10.1818 23.8667 8.80808 23.8667 7.1596C23.8667 5.51111 22.5333 4.13737 20.9333 4.13737C19.3333 4.13737 18 5.51111 18 7.1596C18 8.80808 19.2 10.1818 20.9333 10.1818Z" fill="white"/>
</svg>
