<svg width="32" height="32" viewBox="0 0 32 32" xmlns="http://www.w3.org/2000/svg">
<path d="M15.8668 11.9677C10.8002 11.9677 6.66683 16.0889 6.66683 21.1717C6.66683 26.2545 10.8002 26.6667 15.8668 26.6667C20.9335 26.6667 25.0668 26.2545 25.0668 21.1717C25.0668 16.0889 20.9335 11.9677 15.8668 11.9677Z" />
<path d="M4.26683 9.7697C2.66683 9.7697 1.3335 11.1434 1.3335 12.9293C1.3335 14.5778 2.66683 15.9515 4.26683 15.9515C5.86683 15.9515 7.20016 14.5778 7.20016 12.9293C7.20016 11.1434 5.86683 9.7697 4.26683 9.7697Z" />
<path d="M27.7335 9.7697C26.1335 9.7697 24.8002 11.1434 24.8002 12.7919C24.8002 14.4404 26.1335 15.8141 27.7335 15.8141C29.3335 15.8141 30.6668 14.4404 30.6668 12.7919C30.6668 11.1434 29.4668 9.7697 27.7335 9.7697Z" />
<path d="M11.2002 10.1818C12.8002 10.1818 14.1335 8.80808 14.1335 7.1596C14.1335 5.37374 12.8002 4 11.2002 4C9.60016 4 8.26683 5.37374 8.26683 7.02222C8.26683 8.80808 9.60016 10.1818 11.2002 10.1818Z" />
<path d="M20.9335 10.1818C22.5335 10.1818 23.8668 8.80808 23.8668 7.1596C23.8668 5.51111 22.5335 4.13737 20.9335 4.13737C19.3335 4.13737 18.0002 5.51111 18.0002 7.1596C18.0002 8.80808 19.2002 10.1818 20.9335 10.1818Z" />
</svg>
