<svg width="22" height="17" viewBox="0 0 22 17" fill="none" xmlns="http://www.w3.org/2000/svg">
<path d="M10.9 5.97576C7.1 5.97576 4 9.06667 4 12.8788C4 16.6909 7.1 17 10.9 17C14.7 17 17.8 16.6909 17.8 12.8788C17.8 9.06667 14.7 5.97576 10.9 5.97576Z" fill="#6D6D6D"/>
<path d="M2.2 4.32727C1 4.32727 0 5.35758 0 6.69697C0 7.93333 1 8.96364 2.2 8.96364C3.4 8.96364 4.4 7.93333 4.4 6.69697C4.4 5.35758 3.4 4.32727 2.2 4.32727Z" fill="#6D6D6D"/>
<path d="M19.8 4.32727C18.6 4.32727 17.6 5.35758 17.6 6.59394C17.6 7.8303 18.6 8.86061 19.8 8.86061C21 8.86061 22 7.8303 22 6.59394C22 5.35758 21.1 4.32727 19.8 4.32727Z" fill="#6D6D6D"/>
<path d="M7.4 4.63636C8.6 4.63636 9.6 3.60606 9.6 2.3697C9.6 1.0303 8.6 0 7.4 0C6.2 0 5.2 1.0303 5.2 2.26667C5.2 3.60606 6.2 4.63636 7.4 4.63636Z" fill="#6D6D6D"/>
<path d="M14.7 4.63636C15.9 4.63636 16.9 3.60606 16.9 2.3697C16.9 1.13333 15.9 0.10303 14.7 0.10303C13.5 0.10303 12.5 1.13333 12.5 2.3697C12.5 3.60606 13.4 4.63636 14.7 4.63636Z" fill="#6D6D6D"/>
</svg>
